<svg width="110" height="48" viewBox="0 0 110 48" fill="none" xmlns="http://www.w3.org/2000/svg">
<path d="M27.5422 14C27.5422 21.4791 21.4792 27.5422 14 27.5422C6.5209 27.5422 0.457865 21.4791 0.457865 14C0.457865 6.52087 6.5209 0.457831 14 0.457831C21.4792 0.457831 27.5422 6.52087 27.5422 14ZM107.941 45.511C107.834 46.9092 106.613 47.9555 105.215 47.8479L82.4298 46.0952C81.0316 45.9877 79.9853 44.767 80.0929 43.3688C80.2004 41.9706 81.4211 40.9243 82.8193 41.0319L103.073 42.5898L104.631 22.3364C104.738 20.9382 105.959 19.8919 107.357 19.9995C108.755 20.107 109.802 21.3277 109.694 22.7259L107.941 45.511ZM14 11.4608H55.2102V16.5392H14V11.4608ZM95.6955 30.0814L107.338 43.6638L103.482 46.9687L91.8398 33.3864L95.6955 30.0814ZM55.2102 11.4608C70.7763 11.4608 85.5652 18.2628 95.6955 30.0814L91.8398 33.3864C82.6743 22.6933 69.2938 16.5392 55.2102 16.5392V11.4608Z" fill="black"/>
</svg>
