<svg width="110" height="48" viewBox="0 0 110 48" fill="none" xmlns="http://www.w3.org/2000/svg">
<path d="M82.8675 14C82.8675 21.4791 88.9305 27.5422 96.4096 27.5422C103.889 27.5422 109.952 21.4791 109.952 14C109.952 6.52087 103.889 0.457831 96.4096 0.457831C88.9305 0.457831 82.8675 6.52087 82.8675 14ZM2.46832 45.511C2.57588 46.9092 3.79654 47.9555 5.19474 47.8479L27.9798 46.0952C29.378 45.9877 30.4243 44.767 30.3168 43.3688C30.2092 41.9706 28.9886 40.9243 27.5904 41.0319L7.33693 42.5898L5.77898 22.3364C5.67142 20.9382 4.45076 19.8919 3.05256 19.9995C1.65435 20.107 0.608068 21.3277 0.715622 22.7259L2.46832 45.511ZM96.4096 11.4608H55.1994V16.5392H96.4096V11.4608ZM14.7141 30.0814L3.07213 43.6638L6.92787 46.9687L18.5699 33.3864L14.7141 30.0814ZM55.1994 11.4608C39.6333 11.4608 24.8444 18.2628 14.7141 30.0814L18.5699 33.3864C27.7354 22.6933 41.1158 16.5392 55.1994 16.5392V11.4608Z" fill="black"/>
</svg>
